# xmcd CD database file
#
# Track frame offsets:
#	150
#	17815
#	33800
#	51795
#	68715
#	86562
#	100682
#	114165
#	129975
#	143170
#	165195
#	182882
#	198862
#	216792
#	233692
#	251497
#	265617
#	279077
#	293572
#	306755
#
# Disc length: 4383 seconds
#
# Revision: 0
# Processed by: cddbd v1.5.1PL0 Copyright (c) Steve Scherf et al.
# Submitted via: CDex 1.50beta9
#
DISCID=fd111d14
DTITLE=Philadelphia Country - Canção de Vitória
DYEAR=1900
DGENRE=Country
TTITLE0=Vôo dos Anjos
TTITLE1=O amor
TTITLE2=Toque sutil
TTITLE3=A montanha
TTITLE4=Nova estação
TTITLE5=Philadelphia
TTITLE6=Meu refúgio
TTITLE7=Canção de Vitória
TTITLE8=Ao nome Dele
TTITLE9=Dias de chuva
TTITLE10=Playback Vôo dos Anjos
TTITLE11=Playback O amor
TTITLE12=Playback Toque Sutil
TTITLE13=Playback A montanha
TTITLE14=PlaybackNova estação
TTITLE15=Playback Philadelphia
TTITLE16=Playback Meu Refúgio
TTITLE17=Playback Canção de Vitória
TTITLE18=Playback Ao nome Dele
TTITLE19=Playback Dias de chuva
EXTD=
EXTT0=
EXTT1=
EXTT2=
EXTT3=
EXTT4=
EXTT5=
EXTT6=
EXTT7=
EXTT8=
EXTT9=
EXTT10=
EXTT11=
EXTT12=
EXTT13=
EXTT14=
EXTT15=
EXTT16=
EXTT17=
EXTT18=
EXTT19=
PLAYORDER=
